<!DOCTYPE svg PUBLIC "-//W3C//DTD SVG 1.1//EN" "http://www.w3.org/Graphics/SVG/1.1/DTD/svg11.dtd">
<!-- Uploaded to: SVG Repo, www.svgrepo.com, Transformed by: SVG Repo Mixer Tools -->
<svg xmlns="http://www.w3.org/2000/svg" xmlns:xlink="http://www.w3.org/1999/xlink" version="1.1" id="Capa_1" viewBox="0 0 438.5 438.5" xml:space="preserve" width="108px" height="108px" fill="#000000">
<g id="SVGRepo_bgCarrier" stroke-width="0"/>
<g id="SVGRepo_tracerCarrier" stroke-linecap="round" stroke-linejoin="round"/>
<g id="SVGRepo_iconCarrier"> <g> <polygon style="fill:#6CDFB4;" points="396.578,165.46 219.646,264.803 42.713,165.46 39.041,181 219.646,282.006 400.25,181 "/> <path style="fill:#6CDFB4;" d="M219.494,288.825L158.92,180.78l6.535-18.461l53.99,95.855 c53.725-96.085,53.732-96.096,53.926-96.381L279.51,181c-0.593,1.055-52.899,95.096-53.494,96.16L219.494,288.825z"/> <path style="fill:#E44670;" d="M261.228,438.5c-1.953,0-3.873-0.12-5.76-0.349l-36.153-163.8 c2.727,1.505,89.935,49.931,89.935,116.127C309.25,416.998,287.748,438.5,261.228,438.5z"/> <path style="fill:#FF6288;" d="M255.468,438.151c18.011-2.88,31.964-23.127,31.964-47.673c0-66.033-65.749-114.393-68.116-116.127 c-0.044-0.022-0.065-0.033-0.065-0.033s-90,48.916-90,116.16c0,26.52,21.491,48.022,48.011,48.022 c18.087,0,33.796-10.015,41.989-24.775C226.548,426.893,239.846,436.285,255.468,438.151z"/> <path style="fill:#4DA081;" d="M221.2,0.01L368.66,154.61c12.9,5.59,23.86,14.819,31.59,26.39C400.25,81.69,320.26,1.06,221.2,0.01 z"/> <path style="fill:#5DC09A;" d="M368.66,154.61c-8.82-3.81-18.55-5.93-28.78-5.93c-25.19,0-47.36,12.84-60.37,32.32 c-0.05-0.07-0.1-0.15-0.15-0.22L219.25,0c0.65,0,1.3,0,1.95,0.01C296.24,1.15,358.09,67.91,368.66,154.61z"/> <path style="fill:#5DC09A;" d="M38.25,181c13.04-19.3,35.11-32.32,60.15-32.32c25.19,0,47.37,12.84,60.37,32.32 c0.05-0.07,0.1-0.15,0.15-0.22L219.03,0C119.17,0.12,38.25,81.11,38.25,181z"/> <path style="fill:#7BFFCD;" d="M219.25,0c33.19,0.36,60.07,81.14,60.11,180.78c-13.03-19.36-35.14-32.1-60.22-32.1 s-47.19,12.74-60.22,32.1C158.96,81.14,185.84,0.36,219.03,0C219.1,0,219.18,0,219.25,0z"/> </g> </g>
</svg>